# xmcd
#
# Track frame offsets:
#	150
#	29988
#	53503
#	72763
#	103113
#	125495
#	146138
#	157563
#	184638
#	205038
#	232763
#	254838
#	277473
#
# Disc length: 4203 seconds
#
# Revision: 0
# Processed by: cddbd v1.5.2PL0 Copyright (c) Steve Scherf et al.
# Submitted via: EasyCDDAExtractor 16.0.9.1
#
DISCID=bf10690d
DTITLE=Sade - N-062 Sade  Lovers Live
DYEAR=1900
DGENRE=
TTITLE0=Cherish The Day
TTITLE1=Somebody Already Broke My Heart
TTITLE2=Smooth Operator
TTITLE3=Jezebel
TTITLE4=Kiss Of Life
TTITLE5=Slave Song
TTITLE6=The Sweetest Gift
TTITLE7=The Sweetest Taboo
TTITLE8=Paradise
TTITLE9=No Ordinary Love
TTITLE10=By Your Side
TTITLE11=Flow
TTITLE12=Is It A Crime
EXTD=
EXTT0=
EXTT1=
EXTT2=
EXTT3=
EXTT4=
EXTT5=
EXTT6=
EXTT7=
EXTT8=
EXTT9=
EXTT10=
EXTT11=
EXTT12=
PLAYORDER=
